<svg xmlns="http://www.w3.org/2000/svg" xmlns:xlink="http://www.w3.org/1999/xlink" id="Layer_1" viewBox="0 0 300 300"><defs><style>      .st0 {        fill: url(#linear-gradient);      }      .st1 {        fill: #fff;      }    </style><linearGradient id="linear-gradient" x1="2" y1="150" x2="298" y2="150" gradientUnits="userSpaceOnUse"><stop offset="0" stop-color="#f60"></stop><stop offset=".15" stop-color="#fa6105"></stop><stop offset=".35" stop-color="#ef5315"></stop><stop offset=".58" stop-color="#dc3c30"></stop><stop offset=".82" stop-color="#c11c54"></stop><stop offset="1" stop-color="#aa0076"></stop></linearGradient></defs><circle class="st0" cx="150" cy="150" r="148"></circle><g><path class="st1" d="M172.47,176.61c-2.68-8.58-5.64-15.58-8.8-19-8.49-9.21-33.45-13.36-48.86-15.1-1.34-.15-1.33-2.1,0-2.24,17.09-1.72,46.09-5.4,52.55-11.12,9.04-7.98,14.23-45.03,16.33-63.85.15-1.33,2.09-1.33,2.24,0,2.09,18.6,7,54.82,14.07,61.69,10.85,10.54,40.4,13.01,56.44,13.56,1.33.05,1.49,1.94.2,2.22-15.62,3.32-43.98,10.24-51.81,18.08-9.55,9.56-15.72,53.8-17.97,72.75-.16,1.29-2.03,1.34-2.22.05-2.05-13.17-6.45-38.7-12.18-57.04"></path><path class="st1" d="M54.78,105c-1.29-.2-1.27-2.06.02-2.24,8.86-1.1,20.63-3.05,23.55-5.89,4.06-3.92,6.62-20.17,7.94-31.43.16-1.33,2.09-1.32,2.24,0,1.28,11.08,3.6,26.84,6.77,30.2,4.95,5.27,17.37,6.99,25.97,7.55,1.28.09,1.45,1.91.21,2.22-8.32,2.08-20.09,5.59-23.67,9.5-4.41,4.84-7.43,25.23-8.87,37.29-.16,1.31-2.03,1.33-2.24.04-1.89-12.37-5.72-33.73-10.29-39.18-3.77-4.48-13.82-6.87-21.66-8.07h.02Z"></path><path class="st1" d="M83.38,208.02c-1.31-.18-1.28-2.08.02-2.24,9.44-1.09,21.87-2.98,24.97-5.72,4.42-3.9,7.18-20.3,8.58-31.31.17-1.32,2.06-1.32,2.24,0,1.36,10.84,3.87,26.75,7.32,30.11,5.27,5.11,18.42,6.8,27.62,7.35,1.29.07,1.44,1.93.18,2.22-8.88,2.04-21.33,5.44-25.12,9.24-4.79,4.79-8.04,25.25-9.55,36.94-.17,1.28-2.02,1.32-2.22.04-1.99-11.98-6.13-33.39-11.09-38.79-4.01-4.35-14.6-6.66-22.94-7.85h0Z"></path></g></svg>